<?xml version="1.0" encoding="UTF-8" standalone="no"?>
<!-- Created with Inkscape (http://www.inkscape.org/) -->

<svg
   width="690"
   height="150"
   viewBox="0 0 182.5625 39.687501"
   version="1.1"
   id="svg24868"
   inkscape:version="1.1 (c68e22c387, 2021-05-23)"
   sodipodi:docname="devsolus banner.svg"
   inkscape:export-filename="C:\Users\aqwam\Downloads\solus new done.png"
   inkscape:export-xdpi="96"
   inkscape:export-ydpi="96"
   xmlns:inkscape="http://www.inkscape.org/namespaces/inkscape"
   xmlns:sodipodi="http://sodipodi.sourceforge.net/DTD/sodipodi-0.dtd"
   xmlns:xlink="http://www.w3.org/1999/xlink"
   xmlns="http://www.w3.org/2000/svg"
   xmlns:svg="http://www.w3.org/2000/svg">
  <sodipodi:namedview
     id="namedview24870"
     pagecolor="#ffffff"
     bordercolor="#999999"
     borderopacity="1"
     inkscape:pageshadow="0"
     inkscape:pageopacity="0"
     inkscape:pagecheckerboard="0"
     inkscape:document-units="mm"
     showgrid="false"
     units="px"
     fit-margin-top="0"
     fit-margin-left="0"
     fit-margin-right="0"
     fit-margin-bottom="0"
     inkscape:zoom="1.0356019"
     inkscape:cx="278.09914"
     inkscape:cy="-46.349856"
     inkscape:window-width="1920"
     inkscape:window-height="1000"
     inkscape:window-x="-11"
     inkscape:window-y="-11"
     inkscape:window-maximized="1"
     inkscape:current-layer="layer1" />
  <defs
     id="defs24865">
    <linearGradient
       inkscape:collect="always"
       id="linearGradient6837">
      <stop
         style="stop-color:#0832ff;stop-opacity:1"
         offset="0"
         id="stop6833" />
      <stop
         style="stop-color:#0cff85;stop-opacity:1"
         offset="1"
         id="stop6835" />
    </linearGradient>
    <linearGradient
       inkscape:collect="always"
       xlink:href="#linearGradient6837"
       id="linearGradient6839"
       x1="172.54674"
       y1="114.03492"
       x2="305.87155"
       y2="111.86703"
       gradientUnits="userSpaceOnUse" />
    <linearGradient
       inkscape:collect="always"
       xlink:href="#linearGradient6837"
       id="linearGradient7068"
       gradientUnits="userSpaceOnUse"
       x1="172.54674"
       y1="114.03492"
       x2="305.87155"
       y2="111.86703" />
    <linearGradient
       inkscape:collect="always"
       xlink:href="#linearGradient6837"
       id="linearGradient7070"
       gradientUnits="userSpaceOnUse"
       x1="172.54674"
       y1="114.03492"
       x2="305.87155"
       y2="111.86703" />
    <linearGradient
       inkscape:collect="always"
       xlink:href="#linearGradient6837"
       id="linearGradient7072"
       gradientUnits="userSpaceOnUse"
       x1="172.54674"
       y1="114.03492"
       x2="305.87155"
       y2="111.86703" />
    <linearGradient
       inkscape:collect="always"
       xlink:href="#linearGradient6837"
       id="linearGradient7074"
       gradientUnits="userSpaceOnUse"
       x1="172.54674"
       y1="114.03492"
       x2="305.87155"
       y2="111.86703" />
    <linearGradient
       inkscape:collect="always"
       xlink:href="#linearGradient6837"
       id="linearGradient7076"
       gradientUnits="userSpaceOnUse"
       x1="172.54674"
       y1="114.03492"
       x2="305.87155"
       y2="111.86703" />
  </defs>
  <g
     inkscape:label="Layer 1"
     inkscape:groupmode="layer"
     id="layer1"
     transform="translate(-77.521194,-84.045868)">
    <rect
       style="fill:#000000;fill-opacity:1;stroke:none;stroke-width:2.08194"
       id="rect1017"
       width="181.56729"
       height="39.096737"
       x="78.243828"
       y="84.226524"
       ry="4.524188" />
    <g
       id="g7224">
      <g
         id="g7185"
         transform="matrix(1.9680669,0,0,1.9680669,-88.32311,-93.516081)">
        <rect
           style="fill:#333333;fill-opacity:1;stroke:none;stroke-width:0.205082"
           id="rect24789"
           width="13.85491"
           height="13.85491"
           x="87.277847"
           y="93.697777"
           ry="3.8881779" />
        <path
           id="path24791"
           style="fill:#000000;fill-opacity:1;stroke:none;stroke-width:0.0681972px;stroke-linecap:butt;stroke-linejoin:miter;stroke-opacity:1"
           d="m 97.286474,96.789334 -4.234547,0.814903 -2.083682,3.154363 1.055927,0.88713 -1.233565,0.40782 2.454192,2.16889 -1.643018,1.87915 1.992396,1.45173 h 3.661875 c 2.154055,0 3.888188,-1.73413 3.888188,-3.88818 v -2.17951 z"
           sodipodi:nodetypes="ccccccccsscc" />
        <g
           id="g24797"
           style="fill:#e6e6e6;fill-opacity:1;stroke:#000000;stroke-width:1.5;stroke-miterlimit:4;stroke-dasharray:none;stroke-opacity:1"
           transform="matrix(0.25775376,0,0,0.25775376,71.297406,58.657643)">
          <path
             style="fill:#e6e6e6;fill-opacity:1;stroke:#000000;stroke-width:1.5;stroke-linecap:butt;stroke-linejoin:miter;stroke-miterlimit:4;stroke-dasharray:none;stroke-opacity:1"
             d="m 76.220783,163.16303 9.376417,-14.56513 14.065942,0.0639 -4.306888,8.11173 -13.108416,-0.17604 z"
             id="path24793"
             sodipodi:nodetypes="cccccc" />
          <path
             style="fill:#e6e6e6;fill-opacity:1;stroke:#000000;stroke-width:1.5;stroke-linecap:butt;stroke-linejoin:miter;stroke-miterlimit:4;stroke-dasharray:none;stroke-opacity:1"
             d="m 77.143588,167.66631 6.407268,-7.40694 19.104474,-0.0903 -23.756391,23.89188 C 91.27394,168.47929 91.27394,167.90496 91.27394,167.90496 Z"
             id="path24795"
             sodipodi:nodetypes="cccccc" />
        </g>
        <g
           id="g24803"
           style="stroke:none"
           transform="matrix(0.25775376,0,0,0.25775376,71.297406,58.657643)">
          <path
             style="fill:#01cfff;fill-opacity:1;stroke:none;stroke-width:0.565;stroke-linecap:butt;stroke-linejoin:miter;stroke-miterlimit:4;stroke-dasharray:none;stroke-opacity:1"
             d="m 76.469186,162.88075 9.128014,-14.28285 14.065942,0.0639 -4.306888,8.11173 -13.108416,-0.17604 z"
             id="path24799"
             sodipodi:nodetypes="cccccc" />
          <path
             style="fill:#00ffbb;fill-opacity:1;stroke:none;stroke-width:0.565;stroke-linecap:butt;stroke-linejoin:miter;stroke-miterlimit:4;stroke-dasharray:none;stroke-opacity:1"
             d="m 76.42096,168.20828 7.129896,-7.94891 19.104474,-0.0903 -23.756391,23.89188 C 91.27394,168.47929 91.27394,167.90496 91.27394,167.90496 Z"
             id="path24801"
             sodipodi:nodetypes="cccccc" />
        </g>
      </g>
      <g
         id="g7202"
         transform="translate(0,0.83452443)">
        <g
           id="g7190"
           transform="matrix(2.3433823,0,0,2.3433823,-134.36887,-136.7307)">
          <path
             d="m 107.82028,106.66879 h 3.06516 c 2.90384,0 4.59775,-1.72847 4.59775,-4.05615 v -0.0231 c 0,-2.32769 -1.67086,-3.987021 -4.55166,-3.987021 h -3.11125 z m 2.23549,-1.98198 v -4.10225 h 0.91033 c 1.33669,0 2.22398,0.749 2.22398,2.0396 v 0.023 c 0,1.30212 -0.88729,2.0396 -2.22398,2.0396 z"
             id="path5437"
             style="font-weight:bold;font-size:35.0259px;line-height:1.25;font-family:Gotham;-inkscape-font-specification:'Gotham Bold';fill:#ffffff;stroke-width:0.28808" />
          <path
             d="m 119.59696,106.8186 c 1.2445,0 2.10874,-0.50702 2.70794,-1.26755 l -1.20993,-1.00252 c -0.4494,0.43788 -0.86424,0.63378 -1.38278,0.63378 -0.67987,0 -1.17537,-0.3457 -1.34821,-1.02557 h 4.17139 c 0.0115,-0.1498 0.0115,-0.31112 0.0115,-0.4494 0,-1.83219 -0.99099,-3.41086 -3.14582,-3.41086 -1.84372,0 -3.14583,1.4404 -3.14583,3.26106 v 0.023 c 0,1.93589 1.38278,3.23801 3.34172,3.23801 z m -1.26755,-3.77961 c 0.11523,-0.67986 0.50702,-1.12927 1.08318,-1.12927 0.5992,0 1.00252,0.43788 1.08318,1.12927 z"
             id="path5439"
             style="font-weight:bold;font-size:35.0259px;line-height:1.25;font-family:Gotham;-inkscape-font-specification:'Gotham Bold';fill:#ffffff;stroke-width:0.28808" />
          <path
             d="m 125.20872,106.71489 h 1.99351 l 2.48901,-6.28013 h -2.27006 l -1.19842,3.64132 -1.19841,-3.64132 h -2.30463 z"
             id="path5441"
             style="font-weight:bold;font-size:35.0259px;line-height:1.25;font-family:Gotham;-inkscape-font-specification:'Gotham Bold';fill:#ffffff;stroke-width:0.28808" />
        </g>
        <g
           id="g6801"
           style="fill:url(#linearGradient6839);fill-opacity:1"
           transform="matrix(0.76074594,0,0,0.76074594,13.488199,19.308425)">
          <path
             d="m 218.59502,123.89294 c 5.9544,0 9.91233,-2.9772 9.91233,-7.9859 v -0.07 c 0,-4.5884 -3.50259,-6.40974 -9.14176,-7.63565 -3.39751,-0.77057 -4.23814,-1.26093 -4.23814,-2.38176 v -0.0701 c 0,-0.87565 0.8056,-1.57617 2.45182,-1.57617 2.1716,0 4.62342,0.84062 6.86507,2.41679 l 3.39752,-4.79855 c -2.66197,-2.13658 -5.91938,-3.257409 -10.08746,-3.257409 -5.88435,0 -9.49202,3.292439 -9.49202,7.845799 v 0.0701 c 0,5.04372 4.02798,6.51481 9.24684,7.70569 3.32746,0.77057 4.13305,1.33099 4.13305,2.34674 v 0.07 c 0,1.05078 -0.98072,1.68124 -2.80207,1.68124 -2.8371,0 -5.53409,-1.01575 -7.95088,-2.94217 l -3.7828,4.51834 c 3.01223,2.69699 7.14529,4.063 11.4885,4.063 z"
             id="path5443"
             style="font-weight:bold;font-size:35.0259px;line-height:1.25;font-family:Gotham;-inkscape-font-specification:'Gotham Bold';fill:url(#linearGradient7068);fill-opacity:1;stroke-width:0.875649" />
          <path
             d="m 241.0816,123.92797 c 6.0945,0 10.50777,-4.51834 10.50777,-9.91233 v -0.0701 c 0,-5.39399 -4.37824,-9.84228 -10.43772,-9.84228 -6.09451,0 -10.50777,4.51834 -10.50777,9.91233 v 0.07 c 0,5.39399 4.37824,9.84228 10.43772,9.84228 z m 0.07,-5.63917 c -2.34674,0 -4.02798,-1.96145 -4.02798,-4.27316 v -0.0701 c 0,-2.27669 1.54114,-4.20311 3.95793,-4.20311 2.34673,0 4.02798,1.96145 4.02798,4.27316 v 0.07 c 0,2.27669 -1.54114,4.20311 -3.95793,4.20311 z"
             id="path5445"
             style="font-weight:bold;font-size:35.0259px;line-height:1.25;font-family:Gotham;-inkscape-font-specification:'Gotham Bold';fill:url(#linearGradient7070);fill-opacity:1;stroke-width:0.875649" />
          <path
             d="m 254.53148,123.47263 h 6.65492 V 97.903725 h -6.65492 z"
             id="path5447"
             style="font-weight:bold;font-size:35.0259px;line-height:1.25;font-family:Gotham;-inkscape-font-specification:'Gotham Bold';fill:url(#linearGradient7072);fill-opacity:1;stroke-width:0.875649" />
          <path
             d="m 271.20378,123.89294 c 2.69699,0 4.44829,-1.43606 5.67419,-3.01222 v 2.59191 h 6.65492 v -18.94901 h -6.65492 v 10.26259 c 0,2.06653 -1.19088,3.18736 -2.76704,3.18736 -1.6112,0 -2.697,-1.12083 -2.697,-3.18736 v -10.26259 h -6.65492 v 12.39917 c 0,4.30819 2.41679,6.97015 6.44477,6.97015 z"
             id="path5449"
             style="font-weight:bold;font-size:35.0259px;line-height:1.25;font-family:Gotham;-inkscape-font-specification:'Gotham Bold';fill:url(#linearGradient7074);fill-opacity:1;stroke-width:0.875649" />
          <path
             d="m 294.63607,123.89294 c 4.62342,0 7.74073,-2.1716 7.74073,-6.33968 v -0.0701 c 0,-3.67772 -2.9772,-4.97367 -6.72498,-6.02445 -1.99647,-0.59544 -3.08227,-0.9457 -3.08227,-1.68124 v -0.0701 c 0,-0.52538 0.52538,-0.91067 1.54113,-0.91067 1.50612,0 3.6427,0.66549 5.60415,1.7513 l 2.27668,-4.20311 c -2.1716,-1.40104 -5.04373,-2.20663 -7.81077,-2.20663 -4.37824,0 -7.60062,2.24165 -7.60062,6.26963 v 0.07 c 0,3.81783 2.9772,5.07876 6.72497,6.05948 1.99648,0.56042 3.04725,0.87565 3.04725,1.6112 v 0.07 c 0,0.66549 -0.52539,1.01575 -1.68124,1.01575 -1.96145,0 -4.34321,-0.73554 -6.51482,-2.17161 l -2.48684,4.02798 c 2.62695,1.8914 5.77928,2.80207 8.96663,2.80207 z"
             id="path5451"
             style="font-weight:bold;font-size:35.0259px;line-height:1.25;font-family:Gotham;-inkscape-font-specification:'Gotham Bold';fill:url(#linearGradient7076);fill-opacity:1;stroke-width:0.875649" />
        </g>
      </g>
    </g>
  </g>
</svg>
